<?xml version="1.0" encoding="UTF-8"?>
<!DOCTYPE svg PUBLIC "-//W3C//DTD SVG 1.1//EN" "http://www.w3.org/Graphics/SVG/1.1/DTD/svg11.dtd">
<!-- Creator: CorelDRAW X5 -->
<svg xmlns="http://www.w3.org/2000/svg" xml:space="preserve" width="28px" height="62px" style="shape-rendering:geometricPrecision; text-rendering:geometricPrecision; image-rendering:optimizeQuality; fill-rule:evenodd; clip-rule:evenodd"
viewBox="0 0 17 39"
 xmlns:xlink="http://www.w3.org/1999/xlink">
 <defs>
  <style type="text/css">
   <![CDATA[
    .fil0 {fill:#5777C7}
   ]]>
  </style>
 </defs>
 <g id="Layer_x0020_1">
  <metadata id="CorelCorpID_0Corel-Layer"/>
  <path class="fil0" d="M0 9l9 -9 9 9 -7 7 0 1 7 -7 0 0 0 5 0 0 -7 7 0 1 7 -7 0 0 0 5 0 0 -7 7 0 1 7 -7 0 0 0 5 0 0 -7 7 0 4 -3 0 0 -4 -7 -7 0 0 0 -5 0 0 7 7 0 -1 -7 -7 0 0 0 -5 0 0 7 7 0 -1 -7 -7 0 0 0 -5 0 0 7 7 0 -1 -7 -7zm9 4l0 0 4 -4 -4 -4 -4 4 4 4z"/>
 </g>
</svg>
