<?xml version="1.0" encoding="UTF-8"?>
<!DOCTYPE svg PUBLIC "-//W3C//DTD SVG 1.1//EN" "http://www.w3.org/Graphics/SVG/1.1/DTD/svg11.dtd">
<!-- Creator: CorelDRAW X5 -->
<svg xmlns="http://www.w3.org/2000/svg" xml:space="preserve" width="222px" height="500px" style="shape-rendering:geometricPrecision; text-rendering:geometricPrecision; image-rendering:optimizeQuality; fill-rule:evenodd; clip-rule:evenodd"
viewBox="0 0 88 198"
 xmlns:xlink="http://www.w3.org/1999/xlink">
 <defs>
  <style type="text/css">
   <![CDATA[
    .fil0 {fill:#F7F7F7}
   ]]>
  </style>
 </defs>
 <g id="Layer_x0020_1">
  <metadata id="CorelCorpID_0Corel-Layer"/>
  <path class="fil0" d="M0 44l44 -44 44 44 -36 36 0 7 36 -36 0 0 0 25 0 0 -36 36 0 7 36 -36 0 0 0 25 0 0 -36 36 0 7 36 -36 0 0 0 25 0 0 -36 36 0 22 -17 0 0 -22 -36 -36 0 0 0 -25 0 0 36 36 0 -7 -36 -36 0 0 0 -25 0 0 36 36 0 -7 -36 -36 0 0 0 -25 0 0 36 36 0 -7 -36 -36zm44 18l1 0 18 -18 -19 -19 -19 19 18 18z"/>
 </g>
</svg>
