<?xml version="1.0" standalone="no"?>
<!-- Generator: Adobe Fireworks 10, Export SVG Extension by Aaron Beall (http://fireworks.abeall.com) . Version: 0.6.1  -->
<!DOCTYPE svg PUBLIC "-//W3C//DTD SVG 1.1//EN" "http://www.w3.org/Graphics/SVG/1.1/DTD/svg11.dtd">
<svg id="Untitled-Page%201" viewBox="0 0 24 19" style="background-color:#ffffff" version="1.1"
	xmlns="http://www.w3.org/2000/svg" xmlns:xlink="http://www.w3.org/1999/xlink" xml:space="preserve"
	x="0px" y="0px" width="24px" height="19px"
>
	<path d="M 1 1 L 23 1 L 23 18 L 1 18 L 1 1 ZM 24 0 L 0 0 L 0 19 L 24 19 L 24 0 ZM 14 9 L 14 10 L 21 10 L 21 9 L 14 9 ZM 3 15 L 3 16 L 21 16 L 21 15 L 3 15 ZM 3 13 L 3 14 L 21 14 L 21 13 L 3 13 ZM 14 7 L 14 8 L 21 8 L 21 7 L 14 7 ZM 14 5 L 14 6 L 21 6 L 21 5 L 14 5 ZM 14 3 L 14 4 L 21 4 L 21 3 L 14 3 ZM 3 11 L 3 12 L 21 12 L 21 11 L 3 11 ZM 3 3 L 3 10 L 13 10 L 13 3 L 3 3 Z" fill="#999999"/>
</svg>