<?xml version="1.0" standalone="no"?>
<!-- Generator: Adobe Fireworks 10, Export SVG Extension by Aaron Beall (http://fireworks.abeall.com) . Version: 0.6.1  -->
<!DOCTYPE svg PUBLIC "-//W3C//DTD SVG 1.1//EN" "http://www.w3.org/Graphics/SVG/1.1/DTD/svg11.dtd">
<svg id="Untitled-Page%201" viewBox="0 0 513 513" style="background-color:#ffffff" version="1.1"
	xmlns="http://www.w3.org/2000/svg" xmlns:xlink="http://www.w3.org/1999/xlink" xml:space="preserve"
	x="0px" y="0px" width="513px" height="513px"
>
	<path d="M 284.0635 294.4127 C 281.3333 300.127 280.127 310.3492 280.381 325.0794 L 227.5556 325.0794 C 227.4286 318.0952 227.3651 313.8413 227.3651 312.3175 C 227.3651 296.5714 230.0317 283.5555 235.4921 273.3968 C 240.9524 263.2381 251.8095 251.8095 268.127 239.1111 C 284.4445 226.4127 294.2222 218.0317 297.3968 214.0952 C 302.2857 207.873 304.7619 201.0159 304.7619 193.5238 C 304.7619 182.7936 300.6349 173.5873 292.4445 165.9048 C 284.254 158.2857 273.2064 154.4127 259.3651 154.4127 C 245.9682 154.4127 234.7937 157.7778 225.7778 164.4444 C 216.7619 171.1746 210.6032 181.3333 207.2381 195.0476 L 154.4127 190.9841 C 155.8095 169.5238 165.5873 151.3016 183.8095 136.3175 C 202.0317 121.3333 225.9682 113.7778 255.619 113.7778 C 286.7302 113.7778 311.5556 121.9682 329.9683 138.2222 C 348.381 154.4762 357.5873 173.4603 357.5873 195.0476 C 357.5873 206.8571 354.2222 218.0952 347.619 228.6349 C 340.9524 239.1746 326.7302 253.5238 305.0159 271.6825 C 293.7143 281.0794 286.7302 288.6984 284.0635 294.4127 ZM 280.381 398.2222 L 227.5556 398.2222 L 227.5556 345.3968 L 280.381 345.3968 L 280.381 398.2222 ZM 0 256 C 0 397.3869 114.6133 512 256 512 C 397.3867 512 512 397.3869 512 256 C 512 114.6131 397.3867 0 256 0 C 114.6133 0 0 114.6131 0 256 Z" fill="#ed8527"/>
</svg>