<?xml version="1.0" encoding="utf-8"?>
<!-- Generator: Adobe Illustrator 16.0.0, SVG Export Plug-In . SVG Version: 6.00 Build 0)  -->
<!DOCTYPE svg PUBLIC "-//W3C//DTD SVG 1.1//EN" "http://www.w3.org/Graphics/SVG/1.1/DTD/svg11.dtd">
<svg version="1.1" id="Layer_1" xmlns="http://www.w3.org/2000/svg" xmlns:xlink="http://www.w3.org/1999/xlink" x="0px" y="0px"
	 width="512px" height="512px" viewBox="0 0 512 512" enable-background="new 0 0 512 512" xml:space="preserve">
<path fill="#ED8527" d="M256,0C114.6,0,0,114.6,0,256c0,141.4,114.6,256,256,256c141.4,0,256-114.6,256-256C512,114.6,397.4,0,256,0
	z M388.8,226.12l-80,80c-1.88,1.87-4.265,2.97-6.915,2.97c-5.47,0-9.885-4.53-9.885-10V259h-35.23
	c-67.35,0-111.569,13.015-111.569,87.545c0,6.4,0.32,12.833,0.78,19.242c0.16,2.5,0.79,5.322,0.79,7.822c0,2.969-1.88,5.475-5,5.475
	c-2.19,0-3.29-1.097-4.38-2.657c-2.34-3.279-4.06-8.277-5.78-11.868c-8.91-20-19.84-48.6-19.84-70.47
	c0-17.5,1.71-35.514,8.28-52.074C141.77,188.104,205.52,179,256.77,179H292v-39.91c0-5.47,4.415-10,9.885-10
	c2.65,0,5.093,1.09,6.973,2.97l79.971,80c1.871,1.87,2.956,4.37,2.956,7.03C391.784,221.74,390.67,224.24,388.8,226.12z"/>
</svg>
