<?xml version="1.0" encoding="utf-8"?>
<!-- Generator: Adobe Illustrator 16.0.0, SVG Export Plug-In . SVG Version: 6.00 Build 0)  -->
<!DOCTYPE svg PUBLIC "-//W3C//DTD SVG 1.1//EN" "http://www.w3.org/Graphics/SVG/1.1/DTD/svg11.dtd">
<svg version="1.1" id="Layer_1" xmlns="http://www.w3.org/2000/svg" xmlns:xlink="http://www.w3.org/1999/xlink" x="0px" y="0px"
	 width="512px" height="512px" viewBox="0 0 512 512" enable-background="new 0 0 512 512" xml:space="preserve">
<path fill="#596C9B" d="M408,179.4c0,16.3-22.6,28.6-37,47l-76.1-75.6c8.2-10.2,28.8-38.8,45.3-38.8C352.5,112,408,169.2,408,179.4z
	 M354.5,240.7L192,400h-72v-77.6l158.4-157.3L354.5,240.7z M0,256c0,141.4,114.6,256,256,256c141.4,0,256-114.6,256-256
	C512,114.6,397.4,0,256,0C114.6,0,0,114.6,0,256z M204.3,359.2c0-6.1-30.9-32.7-45.3-44.9l-16.5,16.3V351h24.7v24.5h22.6
	C196.1,369.4,204.3,363.2,204.3,359.2z"/>
</svg>
