<?xml version="1.0" encoding="utf-8"?>
<!-- Generator: Adobe Illustrator 16.0.0, SVG Export Plug-In . SVG Version: 6.00 Build 0)  -->
<!DOCTYPE svg PUBLIC "-//W3C//DTD SVG 1.1//EN" "http://www.w3.org/Graphics/SVG/1.1/DTD/svg11.dtd">
<svg version="1.1" id="Layer_1" xmlns="http://www.w3.org/2000/svg" xmlns:xlink="http://www.w3.org/1999/xlink" x="0px" y="0px"
	 width="512px" height="512px" viewBox="0 0 512 512" enable-background="new 0 0 512 512" xml:space="preserve">
<path fill="#FF4848" d="M247.9,101.6h16.3c20.2,0,56.9,22.3,56.9,52.8v69.1h56.9V386H130V223.5h61v-69.1
	C190.3,121.2,227.7,101.6,247.9,101.6z M0,256c0,141.4,114.6,256,256,256c141.4,0,256-114.6,256-256C512,114.6,397.4,0,256,0
	C114.6,0,0,114.6,0,256z M215.4,223.5h81.3v-61c0-20.2-16.4-36.6-36.6-36.6h-8.1c-20.2,0-36.6,16.4-36.6,36.6V223.5z"/>
</svg>
