<?xml version="1.0" standalone="no"?>
<!-- Generator: Adobe Fireworks 10, Export SVG Extension by Aaron Beall (http://fireworks.abeall.com) . Version: 0.6.1  -->
<!DOCTYPE svg PUBLIC "-//W3C//DTD SVG 1.1//EN" "http://www.w3.org/Graphics/SVG/1.1/DTD/svg11.dtd">
<svg id="Untitled-Page%201" viewBox="0 0 140 114" style="background-color:#ffffff" version="1.1"
	xmlns="http://www.w3.org/2000/svg" xmlns:xlink="http://www.w3.org/1999/xlink" xml:space="preserve"
	x="0px" y="0px" width="140px" height="114px"
>
	<path d="M 109 85 L 127 85 L 127 101 L 109 101 L 109 85 ZM 109 61 L 127 61 L 127 77 L 109 77 L 109 61 ZM 109 37 L 127 37 L 127 53 L 109 53 L 109 37 ZM 109 13 L 127 13 L 127 29 L 109 29 L 109 13 ZM 13 85 L 31 85 L 31 101 L 13 101 L 13 85 ZM 13 61 L 31 61 L 31 77 L 13 77 L 13 61 ZM 13 37 L 31 37 L 31 53 L 13 53 L 13 37 ZM 13 13 L 31 13 L 31 29 L 13 29 L 13 13 ZM 140 0 L 0 0 L 0 114 L 140 114 L 140 0 Z" fill="#999999"/>
</svg>