<?xml version="1.0" encoding="utf-8"?>
<!-- Generator: Adobe Illustrator 16.0.0, SVG Export Plug-In . SVG Version: 6.00 Build 0)  -->
<!DOCTYPE svg PUBLIC "-//W3C//DTD SVG 1.1//EN" "http://www.w3.org/Graphics/SVG/1.1/DTD/svg11.dtd">
<svg version="1.1" id="Layer_1" xmlns="http://www.w3.org/2000/svg" xmlns:xlink="http://www.w3.org/1999/xlink" x="0px" y="0px"
	 width="512px" height="512px" viewBox="0 0 512 512" enable-background="new 0 0 512 512" xml:space="preserve">
<path fill="#1A8CFF" d="M240,112c17.7,0,32,14.3,32,32l0,96l96,0c17.7,0,32,14.3,32,32c0,17.7-14.3,32-32,32H240
	c-17.7,0-32-14.3-32-32V144C208,126.3,222.3,112,240,112z M0,256c0,141.4,114.6,256,256,256c141.4,0,256-114.6,256-256
	C512,114.6,397.4,0,256,0C114.6,0,0,114.6,0,256z"/>
</svg>
