<?xml version="1.0" encoding="utf-8"?>
<!-- Generator: Adobe Illustrator 16.0.0, SVG Export Plug-In . SVG Version: 6.00 Build 0)  -->
<!DOCTYPE svg PUBLIC "-//W3C//DTD SVG 1.1//EN" "http://www.w3.org/Graphics/SVG/1.1/DTD/svg11.dtd">
<svg version="1.1" id="Layer_1" xmlns="http://www.w3.org/2000/svg" xmlns:xlink="http://www.w3.org/1999/xlink" x="0px" y="0px"
	 width="512px" height="512px" viewBox="0 0 512 512" enable-background="new 0 0 512 512" xml:space="preserve">
<path d="M446.1,281c1-8.2,1.8-16.5,1.8-25c0-8.4-0.8-16.8-1.8-25l54.1-42.4c4.9-3.8,6.3-10.8,3.1-16.4l-51.2-88.7
	c-3.2-5.5-9.9-7.8-15.6-5.5l-63.7,25.7c-13.2-10.1-27.6-18.7-43.3-25.2l-9.6-67.8c-1.2-6-6.4-10.8-12.8-10.8H204.7
	c-6.4,0-11.7,4.7-12.7,10.8l-9.6,67.8c-15.6,6.5-30.1,15-43.3,25.2L75.5,78.1c-5.8-2.2-12.4,0-15.6,5.5L8.6,172.3
	c-3.2,5.5-1.8,12.4,3.1,16.4l54,42.4c-1,8.2-1.8,16.5-1.8,25c0,8.5,0.8,16.8,1.8,25l-54,42.4c-4.9,3.9-6.3,10.8-3.1,16.4l51.2,88.7
	c3.2,5.5,9.9,7.8,15.6,5.5l63.7-25.7c13.2,10.1,27.7,18.7,43.3,25.2l9.6,67.9c1,6,6.3,10.7,12.7,10.7h102.4
	c6.4,0,11.6-4.7,12.7-10.7l9.6-67.9c15.6-6.5,30.1-15,43.3-25.2l63.7,25.7c5.8,2.2,12.4,0,15.6-5.5l51.2-88.7
	c3.2-5.5,1.8-12.4-3.1-16.4L446.1,281z M255.9,345.6c-49.5,0-89.6-40.1-89.6-89.6s40.1-89.6,89.6-89.6c49.5,0,89.6,40.1,89.6,89.6
	S305.5,345.6,255.9,345.6z"/>
</svg>
